HIERARCHY
ROOT Hips
{
    OFFSET 0.000000 0.000000 0.000000
    CHANNELS 6 Xposition Yposition Zposition Zrotation Xrotation Yrotation
    JOINT Spine
    {
        OFFSET -0.000000 14.517291 0.000000
        CHANNELS 3 Zrotation Xrotation Yrotation
        JOINT Spine1
        {
            OFFSET -0.000000 37.558300 0.000000
            CHANNELS 3 Zrotation Xrotation Yrotation
            JOINT Neck
            {
                OFFSET -0.000000 37.404057 3.400369
                CHANNELS 3 Zrotation Xrotation Yrotation
                JOINT Head
                {
                    OFFSET -0.000000 24.785618 -3.540803
                    CHANNELS 3 Zrotation Xrotation Yrotation
                    End Site
                    {
                        OFFSET -0.000000 35.408028 0.000000
                    }
                }
            }
            JOINT LeftShoulder
            {
                OFFSET 6.992933 33.973492 -0.192664
                CHANNELS 3 Zrotation Xrotation Yrotation
                JOINT LeftArm
                {
                    OFFSET 21.527611 0.000000 0.000000
                    CHANNELS 3 Zrotation Xrotation Yrotation
                    JOINT LeftForeArm
                    {
                        OFFSET 56.353916 0.000000 0.000000
                        CHANNELS 3 Zrotation Xrotation Yrotation
                        JOINT LeftHand
                        {
                            OFFSET 47.774071 0.000000 0.000000
                            CHANNELS 3 Zrotation Xrotation Yrotation
                            End Site
                            {
                                OFFSET 26.556021 0.000000 0.000000
                            }
                        }
                    }
                }
            }
            JOINT RightShoulder
            {
                OFFSET -7.065357 33.973492 -0.192664
                CHANNELS 3 Zrotation Xrotation Yrotation
                JOINT RightArm
                {
                    OFFSET -21.527611 0.000000 0.000000
                    CHANNELS 3 Zrotation Xrotation Yrotation
                    JOINT RightForeArm
                    {
                        OFFSET -56.353916 0.000000 0.000000
                        CHANNELS 3 Zrotation Xrotation Yrotation
                        JOINT RightHand
                        {
                            OFFSET -47.774071 0.000000 0.000000
                            CHANNELS 3 Zrotation Xrotation Yrotation
                            End Site
                            {
                                OFFSET -26.556021 0.000000 0.000000
                            }
                        }
                    }
                }
            }
        }
    }
    JOINT LeftUpLeg
    {
        OFFSET 17.704014 0.000000 0.000000
        CHANNELS 3 Zrotation Xrotation Yrotation
        JOINT LeftLeg
        {
            OFFSET -0.000000 -81.181816 0.000000
            CHANNELS 3 Zrotation Xrotation Yrotation
            JOINT LeftFoot
            {
                OFFSET -0.000000 -62.821102 0.000000
                CHANNELS 3 Zrotation Xrotation Yrotation
                JOINT LeftToeBase
                {
                    OFFSET -0.000000 -11.507608 26.556021
                    CHANNELS 3 Zrotation Xrotation Yrotation
                    End Site
                    {
                        OFFSET -0.000000 0.000000 7.081605
                    }
                }
            }
        }
    }
    JOINT RightUpLeg
    {
        OFFSET -17.704014 0.000000 0.000000
        CHANNELS 3 Zrotation Xrotation Yrotation
        JOINT RightLeg
        {
            OFFSET -0.000000 -81.181816 0.000000
            CHANNELS 3 Zrotation Xrotation Yrotation
            JOINT RightFoot
            {
                OFFSET -0.000000 -62.821102 0.000000
                CHANNELS 3 Zrotation Xrotation Yrotation
                JOINT RightToeBase
                {
                    OFFSET -0.000000 -11.507608 26.556021
                    CHANNELS 3 Zrotation Xrotation Yrotation
                    End Site
                    {
                        OFFSET -0.000000 0.000000 7.081605
                    }
                }
            }
        }
    }
}
MOTION
Frames:    13
Frame Time:    0.008333
-7.577103    152.601746    -12.190892    0.317735    1.830699    19.596844    -0.541653    0.628878    8.947706    -2.450695    0.695757    2.997199    -4.265284    -1.534515    -12.508212    13.707897    1.845313    -10.617603    8.466706    -3.157895    -10.686929    -7.573504    -4.309668    -29.153290    -16.800022    -5.052671    -119.418633    -11.442983    -30.596905    -24.616375    -9.623826    5.738901    5.844269    28.958754    -11.603570    63.880299    -5.148357    -23.626059    16.917927    13.375082    -18.605476    37.916569    1.666891    -33.822742    -26.796907    -10.620388    21.520575    -20.309633    -10.080762    3.077977    30.027359    0.000000    0.000000    0.000000    1.779374    11.964534    -10.558750    3.173862    21.355232    -0.739521    -2.589704    -29.430120    -6.582707    0.000000    0.000000    0.000000    
-7.571175    152.596863    -12.198081    0.313532    1.827348    19.614567    -0.528626    0.633935    8.940744    -2.474321    0.692695    2.994972    -4.248075    -1.549791    -12.526154    13.695683    1.844831    -10.640106    8.399137    -3.129916    -10.679673    -7.690225    -4.398756    -29.298628    -16.810360    -5.052583    -119.407227    -11.423151    -30.612268    -24.604265    -9.628190    5.730948    5.834428    28.922163    -11.591219    63.854481    -5.176170    -23.526127    16.906307    13.360165    -18.503798    37.915295    1.663708    -33.829212    -26.823740    -10.634416    21.523611    -20.319641    -10.077093    3.070783    30.044222    0.000000    0.000000    0.000000    1.783986    11.971226    -10.557046    3.189004    21.347229    -0.744179    -2.613777    -29.440945    -6.603394    0.000000    0.000000    0.000000    
-7.570895    152.590820    -12.211190    0.305713    1.827996    19.623821    -0.521459    0.631585    8.941070    -2.491315    0.694876    2.995266    -4.242960    -1.536775    -12.547225    13.711648    1.807715    -10.657085    8.335156    -3.094726    -10.677976    -7.774755    -4.314611    -29.443443    -16.718697    -5.343782    -119.452393    -11.467585    -30.733509    -24.587278    -9.624302    5.716857    5.828029    28.888363    -11.596746    63.822510    -5.178969    -23.447624    16.892151    13.343825    -18.419445    37.986225    1.663708    -33.843117    -26.828817    -10.636515    21.532740    -20.327499    -10.099740    3.055407    30.061689    0.000000    0.000000    0.000000    1.789374    11.960123    -10.546410    3.195830    21.360607    -0.764762    -2.609516    -29.447803    -6.589483    0.000000    0.000000    0.000000    
-7.570722    152.586288    -12.223467    0.301368    1.822909    19.631180    -0.514276    0.648086    8.945398    -2.513716    0.679066    2.996475    -4.222823    -1.527575    -12.569650    13.703197    1.777997    -10.681747    8.281137    -3.058108    -10.677045    -7.893045    -4.279054    -29.592604    -16.643360    -5.570130    -119.478539    -11.518195    -30.815460    -24.550064    -9.620502    5.721986    5.819105    28.867826    -11.611099    63.795692    -5.193768    -23.335773    16.877771    13.344299    -18.301283    37.993168    1.665498    -33.842453    -26.838926    -10.632321    21.523777    -20.324829    -10.121992    3.050133    30.056976    0.000000    0.000000    0.000000    1.794358    11.958800    -10.557359    3.197754    21.364416    -0.766106    -2.616375    -29.460934    -6.590868    0.000000    0.000000    0.000000    
-7.571720    152.580826    -12.237568    0.296114    1.825398    19.641018    -0.513672    0.641160    8.948878    -2.526486    0.690359    2.997969    -4.200475    -1.538082    -12.584380    13.685719    1.753240    -10.699690    8.222022    -3.027892    -10.677583    -8.018955    -4.362057    -29.732088    -16.639250    -5.611552    -119.470619    -11.462030    -30.856329    -24.491541    -9.616003    5.703322    5.807348    28.835369    -11.610429    63.756500    -5.195439    -23.254107    16.876545    13.280989    -18.235413    38.011658    1.666638    -33.853119    -26.860960    -10.643308    21.519838    -20.302401    -10.132294    3.044969    30.056103    0.000000    0.000000    0.000000    1.796460    11.943895    -10.559535    3.208583    21.383036    -0.769878    -2.647889    -29.473513    -6.613629    0.000000    0.000000    0.000000    
-7.572590    152.577179    -12.252064    0.293173    1.817755    19.639439    -0.508230    0.650736    8.956982    -2.547105    0.697717    3.000956    -4.169947    -1.545552    -12.602794    13.658940    1.722388    -10.723420    8.171979    -2.998888    -10.668365    -8.160937    -4.473128    -29.875673    -16.647289    -5.615170    -119.451149    -11.411225    -30.873816    -24.463087    -9.605109    5.686272    5.796471    28.795855    -11.603201    63.726818    -5.223577    -23.181263    16.851372    13.268821    -18.158045    38.037910    1.671234    -33.849812    -26.853294    -10.634632    21.519344    -20.293619    -10.152477    3.039469    30.039921    0.000000    0.000000    0.000000    1.795446    11.942112    -10.532839    3.226867    21.392292    -0.768190    -2.668254    -29.483992    -6.643219    0.000000    0.000000    0.000000    
-7.576872    152.570587    -12.266994    0.291493    1.816005    19.643560    -0.509575    0.656724    8.961503    -2.561270    0.699706    3.002600    -4.183695    -1.545429    -12.624109    13.693369    1.703801    -10.736938    8.115736    -2.955425    -10.667789    -8.256459    -4.406728    -30.007280    -16.541098    -5.916748    -119.493782    -11.431011    -30.986177    -24.421648    -9.607516    5.681485    5.788976    28.788229    -11.616569    63.709694    -5.238053    -23.102631    16.817474    13.237199    -18.082943    38.068760    1.674100    -33.850918    -26.868505    -10.639761    21.510456    -20.275517    -10.156096    3.030331    30.036152    0.000000    0.000000    0.000000    1.794098    11.934107    -10.516323    3.245435    21.404835    -0.783433    -2.689212    -29.501799    -6.653944    0.000000    0.000000    0.000000    
-7.582500    152.562317    -12.284233    0.290268    1.810523    19.643621    -0.511513    0.672376    8.972201    -2.582818    0.694588    3.006174    -4.160414    -1.544791    -12.644289    13.686955    1.676517    -10.759473    8.078893    -2.906170    -10.664306    -8.360943    -4.343593    -30.146902    -16.448709    -6.205478    -119.538010    -11.456514    -31.109146    -24.383196    -9.593717    5.670033    5.778052    28.759119    -11.612407    63.676674    -5.250216    -23.069025    16.795942    13.235450    -18.046131    38.084255    1.677145    -33.850719    -26.858112    -10.633895    21.509932    -20.227676    -10.160864    3.034928    29.982269    0.000000    0.000000    0.000000    1.796442    11.927233    -10.523643    3.242243    21.420778    -0.785233    -2.707772    -29.520849    -6.641313    0.000000    0.000000    0.000000    
-7.587016    152.554504    -12.299318    0.287145    1.803780    19.642763    -0.512003    0.676526    8.979702    -2.586589    0.707930    3.008970    -4.178877    -1.561892    -12.656485    13.710555    1.666328    -10.764373    8.015128    -2.858808    -10.655671    -8.484629    -4.456626    -30.269176    -16.452438    -6.229088    -119.522774    -11.440195    -31.132671    -24.360842    -9.602905    5.674980    5.766134    28.745083    -11.623459    63.663544    -5.259870    -23.052248    16.782928    13.229025    -18.026741    38.111927    1.689012    -33.849037    -26.861141    -10.645008    21.497669    -20.203175    -10.180144    3.025875    29.980930    0.000000    0.000000    0.000000    1.798427    11.926538    -10.515975    3.252478    21.429487    -0.795219    -2.708095    -29.543581    -6.644343    0.000000    0.000000    0.000000    
-7.595724    152.546310    -12.315590    0.280488    1.802225    19.643419    -0.517664    0.683707    8.988338    -2.594096    0.706769    3.011854    -4.179088    -1.553014    -12.677586    13.737298    1.634732    -10.779618    7.971254    -2.819320    -10.650253    -8.615661    -4.557367    -30.384586    -16.454227    -6.245414    -119.520058    -11.389201    -31.162266    -24.309847    -9.600236    5.664743    5.755534    28.747053    -11.634947    63.640678    -5.247721    -23.046669    16.773205    13.230598    -18.020102    38.131969    1.697324    -33.860546    -26.857513    -10.648335    21.503548    -20.178946    -10.175698    3.032701    29.950651    0.000000    0.000000    0.000000    1.803476    11.919301    -10.517472    3.256024    21.435919    -0.789895    -2.724788    -29.563995    -6.636485    0.000000    0.000000    0.000000    
-7.607750    152.537567    -12.325371    0.275266    1.791850    19.644180    -0.524393    0.688831    8.992388    -2.599953    0.715883    3.013443    -4.212444    -1.541890    -12.703985    13.812684    1.616581    -10.790450    7.925097    -2.772678    -10.645612    -8.706282    -4.544397    -30.492968    -16.402905    -6.438356    -119.547783    -11.409086    -31.260422    -24.273182    -9.593003    5.661219    5.747769    28.736162    -11.632954    63.627914    -5.256179    -23.082644    16.745581    13.259426    -18.042261    38.175926    1.713169    -33.861927    -26.867130    -10.663183    21.506071    -20.160624    -10.183002    3.021003    29.953707    0.000000    0.000000    0.000000    1.814384    11.925807    -10.523293    3.255456    21.434061    -0.787624    -2.747418    -29.580288    -6.632977    0.000000    0.000000    0.000000    
-7.619375    152.527237    -12.338177    0.263526    1.787330    19.647076    -0.520059    0.687498    8.993154    -2.616928    0.723901    3.013995    -4.208485    -1.518166    -12.719201    13.841351    1.570026    -10.798684    7.883238    -2.723105    -10.625836    -8.779976    -4.495917    -30.611324    -16.329575    -6.679891    -119.585251    -11.419099    -31.372620    -24.226021    -9.573792    5.663830    5.745772    28.716717    -11.634519    63.606243    -5.265431    -23.124451    16.737936    13.292613    -18.073376    38.176445    1.728392    -33.876900    -26.868578    -10.669874    21.522739    -20.174080    -10.188298    3.001120    29.961771    0.000000    0.000000    0.000000    1.826563    11.918254    -10.527381    3.266590    21.445621    -0.780088    -2.774549    -29.597210    -6.653463    0.000000    0.000000    0.000000    
-7.633653    152.518875    -12.349777    0.250004    1.781171    19.651873    -0.519572    0.691389    8.995319    -2.627959    0.720167    3.014685    -4.208824    -1.506945    -12.730008    13.873551    1.551435    -10.804009    7.847214    -2.689672    -10.624417    -8.877328    -4.494076    -30.700457    -16.297831    -6.808886    -119.606514    -11.449070    -31.439676    -24.202738    -9.564110    5.670315    5.740188    28.722038    -11.631986    63.596291    -5.281954    -23.170265    16.717453    13.309468    -18.112925    38.182880    1.748622    -33.889160    -26.875118    -10.678844    21.528940    -20.168623    -10.199286    2.994327    29.960701    0.000000    0.000000    0.000000    1.843823    11.914595    -10.522902    3.266170    21.451155    -0.782009    -2.764951    -29.607626    -6.633134    0.000000    0.000000    0.000000    
